#!OML:ASF G:\JayActor3\Patient Classification 1\Patient 1\Session 2\male.ASF
:FULLY-SPECIFIED
:DEGREES
3100
root 29.1708 15.6387 -4.4624 1010.93 -83.3239 -289.316
lowerback 13.8481 -0.00660582 -4.36785
upperback 13.9542 -1.34357 -1.58748
thorax 7.23899 -1.3866 0.791258
lowerneck -4.27495 3.07199 0.451752
upperneck -5.64999 4.06751 2.05152
head -1.0622 1.963 0.565695
rclavicle 1.60891e-015 -1.76732e-014
rhumerus -32.1879 2.4757 -79.8713
rradius 70.0984
rwrist 10.2076
rhand -43.8782 9.34392
rfingers 7.12502
rthumb -16.7039 -19.9574
lclavicle 1.60891e-015 -1.76732e-014
lhumerus -0.0637021 -15.041 75.6778
lradius 115.166
lwrist 4.45719
lhand -23.8751 10.9307
lfingers 7.12502
lthumb 2.59794 40.8946
rfemur -52.1497 -8.14649 21.6686
rtibia 33.0422
rfoot 3.01473 -25.3517
rtoes 25.6793
lfemur -19.1581 23.2292 -36.7312
ltibia 48.4063
lfoot -24.7077 8.0533
ltoes -7.51424
3101
root 29.1195 15.6413 -4.46752 1009.73 -83.2852 -288.186
lowerback 13.8294 -0.00158861 -4.49514
upperback 13.9612 -1.34648 -1.67031
thorax 7.25984 -1.39637 0.772987
lowerneck -4.25547 3.15535 0.501525
upperneck -5.63709 4.17809 2.07211
head -1.06191 2.01711 0.563896
rclavicle -8.47941e-015 -5.51627e-015
rhumerus -32.4135 2.45129 -79.9484
rradius 70.0005
rwrist 10.2281
rhand -43.8067 9.29117
rfingers 7.12502
rthumb -16.6351 -20.016
lclavicle -8.47941e-015 -5.51627e-015
lhumerus 0.166299 -15.1724 75.5998
lradius 115.344
lwrist 4.44748
lhand -23.8606 10.9182
lfingers 7.12502
lthumb 2.61197 40.8819
rfemur -52.0909 -8.5262 22.0776
rtibia 32.7681
rfoot 2.18061 -26.1275
rtoes 26.0607
lfemur -18.9353 23.473 -36.6591
ltibia 48.5092
lfoot -24.6138 7.95526
ltoes -7.78106
3102
root 29.0677 15.6437 -4.47257 1008.59 -83.239 -287.089
lowerback 13.801 0.00128784 -4.61427
upperback 13.96 -1.3499 -1.75221
thorax 7.27636 -1.40504 0.751268
lowerneck -4.24697 3.22912 0.543611
upperneck -5.61549 4.27541 2.07685
head -1.05672 2.06516 0.5587
rclavicle 9.39258e-015 1.93815e-015
rhumerus -32.6499 2.42705 -80.023
rradius 69.9124
rwrist 10.2363
rhand -43.7598 9.25484
rfingers 7.12502
rthumb -16.59 -20.0561
lclavicle 9.39258e-015 1.93815e-015
lhumerus 0.374349 -15.3142 75.5299
lradius 115.523
lwrist 4.41833
lhand -23.864 10.9077
lfingers 7.12502
lthumb 2.60872 40.8715
rfemur -52.0499 -8.87582 22.4425
rtibia 32.5377
rfoot 1.15098 -26.9218
rtoes 26.555
lfemur -18.7294 23.6991 -36.5976
ltibia 48.6115
lfoot -24.5184 7.85895
ltoes -8.07691
3103
root 29.0155 15.6456 -4.47767 1007.49 -83.1874 -286.012
lowerback 13.7636 0.00317355 -4.72639
upperback 13.9513 -1.35255 -1.83221
thorax 7.28887 -1.41217 0.727698
lowerneck -4.24425 3.29286 0.572195
upperneck -5.58998 4.35952 2.07598
head -1.04937 2.10708 0.554097
rclavicle -1.87852e-014 -1.93318e-014
rhumerus -32.8911 2.40338 -80.0954
rradius 69.8274
rwrist 10.2327
rhand -43.7374 9.24039
rfingers 7.12502
rthumb -16.5684 -20.0723
lclavicle -1.87852e-014 -1.93318e-014
lhumerus 0.561554 -15.464 75.4702
lradius 115.702
lwrist 4.37367
lhand -23.8788 10.9043
lfingers 7.12502
lthumb 2.59438 40.8683
rfemur -52.0278 -9.20808 22.7794
rtibia 32.3405
rfoot 0.0551472 -27.6703
rtoes 27.0754
lfemur -18.5433 23.9088 -36.5449
ltibia 48.7174
lfoot -24.4201 7.76906
ltoes -8.42044
3104
root 28.9627 15.6471 -4.48288 1006.45 -83.1302 -284.982
lowerback 13.7214 0.00192361 -4.83526
upperback 13.9352 -1.35799 -1.9091
thorax 7.29578 -1.41996 0.706006
lowerneck -4.24427 3.35041 0.589863
upperneck -5.56359 4.43555 2.06942
head -1.0413 2.14529 0.54958
rclavicle -1.42131e-014 -1.6201e-014
rhumerus -33.1282 2.39212 -80.1648
rradius 69.7358
rwrist 10.2152
rhand -43.7271 9.23062
rfingers 7.12502
rthumb -16.5585 -20.0829
lclavicle -1.42131e-014 -1.6201e-014
lhumerus 0.723662 -15.6146 75.4214
lradius 115.88
lwrist 4.32229
lhand -23.9043 10.907
lfingers 7.12502
lthumb 2.56979 40.8713
rfemur -52.0246 -9.54451 23.1039
rtibia 32.1677
rfoot -0.983131 -28.3171
rtoes 27.5488
lfemur -18.374 24.1002 -36.4993
ltibia 48.8291
lfoot -24.3217 7.68579
ltoes -8.80978
3105
root 28.909 15.6479 -4.48829 1005.45 -83.0729 -283.985
lowerback 13.6745 -0.00142594 -4.93861
upperback 13.9136 -1.36485 -1.98258
thorax 7.29894 -1.42769 0.685076
lowerneck -4.24788 3.40284 0.595678
upperneck -5.53706 4.50513 2.0645
head -1.03285 2.18054 0.547565
rclavicle 5.41688e-015 1.18277e-014
rhumerus -33.3553 2.39557 -80.2323
rradius 69.6311
rwrist 10.188
rhand -43.7162 9.22427
rfingers 7.12502
rthumb -16.548 -20.0901
lclavicle 5.41688e-015 1.18277e-014
lhumerus 0.864058 -15.7621 75.3815
lradius 116.055
lwrist 4.27554
lhand -23.9282 10.9079
lfingers 7.12502
lthumb 2.5467 40.8724
rfemur -52.0383 -9.89983 23.4381
rtibia 32.0093
rfoot -1.85406 -28.8188
rtoes 27.8542
lfemur -18.221 24.2785 -36.4554
ltibia 48.9498
lfoot -24.2254 7.61147
ltoes -9.24121
3106
root 28.8543 15.648 -4.49398 1004.47 -83.0181 -282.982
lowerback 13.6219 -0.00530911 -5.04123
upperback 13.8867 -1.3715 -2.05133
thorax 7.29927 -1.43506 0.66884
lowerneck -4.25155 3.45217 0.600161
upperneck -5.50897 4.57045 2.0541
head -1.02374 2.21378 0.544105
rclavicle -9.98893e-015 1.799e-014
rhumerus -33.5692 2.42042 -80.2966
rradius 69.5092
rwrist 10.1531
rhand -43.6983 9.21719
rfingers 7.12502
rthumb -16.5307 -20.0987
lclavicle -9.98893e-015 1.799e-014
lhumerus 0.984483 -15.9018 75.3509
lradius 116.228
lwrist 4.24179
lhand -23.9406 10.9098
lfingers 7.12502
lthumb 2.53476 40.8745
rfemur -52.066 -10.2755 23.7906
rtibia 31.8596
rfoot -2.48938 -29.1588
rtoes 28.0032
lfemur -18.0822 24.453 -36.411
ltibia 49.0794
lfoot -24.1393 7.53934
ltoes -9.68061
3107
root 28.7985 15.6477 -4.50008 1003.47 -82.9721 -281.963
lowerback 13.5665 -0.00892854 -5.13875
upperback 13.8562 -1.37694 -2.1154
thorax 7.29697 -1.44136 0.654751
lowerneck -4.26568 3.49906 0.608148
upperneck -5.47005 4.63199 2.04233
head -1.00939 2.24529 0.539935
rclavicle -2.89232e-014 -3.70733e-014
rhumerus -33.7665 2.46554 -80.36
rradius 69.3681
rwrist 10.1139
rhand -43.6646 9.20375
rfingers 7.12502
rthumb -16.4983 -20.1148
lclavicle -2.89232e-014 -3.70733e-014
lhumerus 1.09124 -16.032 75.3248
lradius 116.396
lwrist 4.22501
lhand -23.9357 10.9067
lfingers 7.12502
lthumb 2.53942 40.8713
rfemur -52.0996 -10.6586 24.1608
rtibia 31.7155
rfoot -2.92169 -29.3577
rtoes 27.9787
lfemur -17.9528 24.627 -36.3581
ltibia 49.2148
lfoot -24.0653 7.46861
ltoes -10.1011
3108
root 28.7416 15.6473 -4.50663 1002.43 -82.9401 -280.888
lowerback 13.5109 -0.00980156 -5.22839
upperback 13.8239 -1.37813 -2.17451
thorax 7.29228 -1.44498 0.641369
lowerneck -4.28766 3.54451 0.623799
upperneck -5.42405 4.69099 2.02837
head -0.991263 2.27552 0.534069
rclavicle 3.27995e-015 1.49089e-014
rhumerus -33.9456 2.52752 -80.4232
rradius 69.2051
rwrist 10.0794
rhand -43.6163 9.18373
rfingers 7.12502
rthumb -16.4518 -20.1387
lclavicle 3.27995e-015 1.49089e-014
lhumerus 1.1885 -16.1531 75.3011
lradius 116.558
lwrist 4.22154
lhand -23.9143 10.898
lfingers 7.12502
lthumb 2.56016 40.8623
rfemur -52.1275 -11.0301 24.5421
rtibia 31.5779
rfoot -3.2307 -29.4431
rtoes 27.8718
lfemur -17.8247 24.8064 -36.2895
ltibia 49.3508
lfoot -24.0059 7.39893
ltoes -10.4943
3109
root 28.6837 15.6471 -4.5136 1001.28 -82.9195 -279.704
lowerback 13.4543 -0.00529095 -5.31298
upperback 13.7913 -1.37184 -2.2314
thorax 7.28739 -1.44458 0.627037
lowerneck -4.31751 3.58927 0.649306
upperneck -5.37083 4.7484 2.01557
head -0.96938 2.30486 0.527194
rclavicle 5.1684e-015 1.33186e-014
rhumerus -34.1073 2.59841 -80.489
rradius 69.0245
rwrist 10.052
rhand -43.5541 9.16684
rfingers 7.12502
rthumb -16.3919 -20.1605
lclavicle 5.1684e-015 1.33186e-014
lhumerus 1.28171 -16.268 75.2752
lradius 116.713
lwrist 4.22511
lhand -23.8829 10.8845
lfingers 7.12502
lthumb 2.59044 40.8485
rfemur -52.1439 -11.3716 24.9205
rtibia 31.4505
rfoot -3.48321 -29.4548
rtoes 27.7378
lfemur -17.6926 24.9922 -36.2088
ltibia 49.4797
lfoot -23.9619 7.33464
ltoes -10.8493
3110
root 28.6247 15.6474 -4.52094 1000.01 -82.9103 -278.405
lowerback 13.3975 0.00391191 -5.39179
upperback 13.7579 -1.35902 -2.28533
thorax 7.28108 -1.44054 0.612274
lowerneck -4.34617 3.63589 0.687535
upperneck -5.31927 4.80765 1.99741
head -0.947749 2.33488 0.516624
rclavicle 1.10325e-014 2.68359e-015
rhumerus -34.2539 2.67701 -80.5562
rradius 68.8286
rwrist 10.0338
rhand -43.4856 9.15053
rfingers 7.12502
rthumb -16.326 -20.1823
lclavicle 1.10325e-014 2.68359e-015
lhumerus 1.36961 -16.3764 75.2492
lradius 116.858
lwrist 4.22252
lhand -23.8483 10.868
lfingers 7.12502
lthumb 2.62383 40.8316
rfemur -52.1469 -11.6775 25.2935
rtibia 31.3394
rfoot -3.72788 -29.4337
rtoes 27.5904
lfemur -17.5519 25.1778 -36.1148
ltibia 49.5961
lfoot -23.929 7.28173
ltoes -11.178
